<svg width="22" height="23" viewBox="0 0 22 23" fill="none" xmlns="http://www.w3.org/2000/svg">
  <path fill-rule="evenodd" clip-rule="evenodd" d="M10.0628 0.456223C10.6349 0.0934092 11.3651 0.0934092 11.9372 0.456223L20.3199 5.7721C21.4037 6.45935 21.4037 8.04064 20.3199 8.72788L11.9372 14.0438C11.3651 14.4066 10.6349 14.4066 10.0628 14.0438L1.68007 8.72788C0.596338 8.04064 0.596337 6.45935 1.68007 5.7721L10.0628 0.456223ZM11.1339 1.72299C11.0522 1.67115 10.9479 1.67115 10.8661 1.72299L2.48339 7.03886C2.32857 7.13704 2.32857 7.36294 2.48339 7.46112L10.8661 12.777C10.9479 12.8288 11.0522 12.8288 11.1339 12.777L19.5166 7.46112C19.6714 7.36294 19.6714 7.13704 19.5166 7.03886L11.1339 1.72299Z" fill="#643bbd"/>
  <path fill-rule="evenodd" clip-rule="evenodd" d="M0.866623 11.3239C1.08845 10.9741 1.55185 10.8704 1.90166 11.0922L10.8661 16.777C10.9479 16.8288 11.0522 16.8288 11.1339 16.777L20.0983 11.0922C20.4482 10.8704 20.9116 10.9741 21.1334 11.3239C21.3552 11.6738 21.2515 12.1372 20.9017 12.359L11.9372 18.0438C11.3651 18.4066 10.6349 18.4066 10.0628 18.0438L1.09835 12.359C0.748541 12.1372 0.644794 11.6738 0.866623 11.3239Z" fill="#c6adff"/>
  <path fill-rule="evenodd" clip-rule="evenodd" d="M0.866623 15.3239C1.08845 14.9741 1.55185 14.8704 1.90166 15.0922L10.8661 20.777C10.9479 20.8288 11.0522 20.8288 11.1339 20.777L20.0983 15.0922C20.4482 14.8704 20.9116 14.9741 21.1334 15.3239C21.3552 15.6738 21.2515 16.1372 20.9017 16.359L11.9372 22.0438C11.3651 22.4066 10.6349 22.4066 10.0628 22.0438L1.09835 16.359C0.748541 16.1372 0.644794 15.6738 0.866623 15.3239Z" fill="#daadff"/>
</svg>
